<?xml version="1.0" encoding="UTF-8" standalone="no"?>
<svg width="456" height="456" viewBox="0 0 456 456" version="1.1" xmlns="http://www.w3.org/2000/svg">
    <!-- CoinStack logo: stacked coins -->
    <!-- Bottom coin -->
    <ellipse cx="228" cy="310" rx="100" ry="30" fill="#c9f158" />
    <rect x="128" y="290" width="200" height="20" fill="#c9f158" />
    <ellipse cx="228" cy="290" rx="100" ry="30" fill="#d4f57a" />
    <!-- Middle coin -->
    <ellipse cx="228" cy="260" rx="100" ry="30" fill="#c9f158" />
    <rect x="128" y="240" width="200" height="20" fill="#c9f158" />
    <ellipse cx="228" cy="240" rx="100" ry="30" fill="#d4f57a" />
    <!-- Top coin -->
    <ellipse cx="228" cy="210" rx="100" ry="30" fill="#c9f158" />
    <rect x="128" y="190" width="200" height="20" fill="#c9f158" />
    <ellipse cx="228" cy="190" rx="100" ry="30" fill="#d4f57a" />
    <!-- Dollar sign as SVG path (not text, for build-pipeline compatibility) -->
    <!-- Vertical bar -->
    <rect x="225" y="170" width="6" height="44" rx="3" fill="#202020" />
    <!-- S-curve top: arcs right then left -->
    <path d="M215,186 C215,178 221,174 228,174 C235,174 241,178 241,186 C241,192 235,196 228,196 C221,196 215,200 215,206" fill="none" stroke="#202020" stroke-width="6" stroke-linecap="round" />
    <!-- S-curve bottom: continues left then right -->
    <path d="M241,206 C241,212 235,216 228,216 C221,216 215,212 215,206" fill="none" stroke="#202020" stroke-width="6" stroke-linecap="round" />
</svg>