<?xml version="1.0" encoding="UTF-8" standalone="no"?>
<svg width="456" height="456" viewBox="0 0 456 456" version="1.1" xmlns="http://www.w3.org/2000/svg">
    <!-- CoinStack splash: stacked coins logo -->
    <!-- Bottom coin -->
    <ellipse cx="228" cy="290" rx="90" ry="27" fill="#c9f158" />
    <rect x="138" y="272" width="180" height="18" fill="#c9f158" />
    <ellipse cx="228" cy="272" rx="90" ry="27" fill="#d4f57a" />
    <!-- Middle coin -->
    <ellipse cx="228" cy="245" rx="90" ry="27" fill="#c9f158" />
    <rect x="138" y="227" width="180" height="18" fill="#c9f158" />
    <ellipse cx="228" cy="227" rx="90" ry="27" fill="#d4f57a" />
    <!-- Top coin -->
    <ellipse cx="228" cy="200" rx="90" ry="27" fill="#c9f158" />
    <rect x="138" y="182" width="180" height="18" fill="#c9f158" />
    <ellipse cx="228" cy="182" rx="90" ry="27" fill="#d4f57a" />
    <!-- Dollar sign as SVG path (not text) -->
    <rect x="225" y="163" width="6" height="40" rx="3" fill="#202020" />
    <path d="M215,178 C215,171 221,167 228,167 C235,167 241,171 241,178 C241,184 235,187 228,187 C221,187 215,191 215,197" fill="none" stroke="#202020" stroke-width="5" stroke-linecap="round" />
    <path d="M241,197 C241,203 235,207 228,207 C221,207 215,203 215,197" fill="none" stroke="#202020" stroke-width="5" stroke-linecap="round" />
</svg>